%
M48
M72
T01C0.0236
T02C0.0240
T03C0.0276
T04C0.0320
T05C0.0400
T06C0.0433
T07C0.0630
T08C0.0866
T09C0.1102
T10C0.1260
%
T01
X66694Y6875
X71069Y6875
X77944Y4625
X68819Y9375
X66819Y9375
T02
X57094Y10600
X59544Y12600
X56294Y13600
X60644Y14050
X65744Y14200
X69544Y13550
X70644Y12650
X70794Y14800
X59944Y17500
X59144Y16000
X55794Y18400
X57294Y19300
X57294Y20350
X55794Y20300
X56194Y21350
X54344Y22350
X56594Y23750
X56044Y23800
X56744Y25350
X60344Y24900
X63294Y22100
X63894Y21300
X66594Y21350
X68244Y22350
X69494Y23500
X71094Y23500
X72494Y23500
X74744Y22450
X77894Y22650
X80894Y21500
X82944Y20750
X74644Y18700
X65344Y19850
X60494Y21500
X74694Y26300
X48544Y15950
X52194Y15400
X44994Y14600
X49594Y12800
X33769Y13900
X32744Y16350
X35094Y18200
X38469Y19775
X39344Y21600
X59544Y5600
X65494Y4350
T03
X63569Y17250
T04
X61319Y17500
X61319Y16500
X61319Y15500
X61319Y14500
X61319Y13500
X58319Y13500
X58319Y14500
X58319Y15500
X58319Y16500
X58319Y17500
X63569Y19375
X61457Y19418
X61457Y20418
X61457Y21418
X61457Y22418
X61457Y23418
X61457Y24418
X64194Y24625
X65194Y24625
X66194Y24625
X67194Y24625
X68194Y24625
X69194Y24625
X70194Y24625
X71194Y24625
X73819Y25125
X73819Y24125
X76069Y23625
X77069Y23625
X78069Y23625
X79069Y23625
X81569Y24875
X82569Y24875
X79069Y26625
X78069Y26625
X77069Y26625
X76069Y26625
X73819Y26875
X71194Y27625
X70194Y27625
X69194Y27625
X68194Y27625
X67194Y27625
X66194Y27625
X65194Y27625
X64194Y27625
X61457Y26418
X61457Y25418
X58457Y25418
X58457Y26418
X58457Y24418
X58457Y23418
X58457Y22418
X58457Y21418
X58457Y20418
X58457Y19418
X63569Y20375
X80569Y27375
X81569Y27375
X83069Y28375
X84069Y28375
X78569Y28375
X77569Y28375
X76569Y28375
X75569Y28375
X73819Y27875
X84319Y13625
X84319Y12625
X86819Y12375
X86819Y13375
X63819Y10750
X63819Y9750
X61319Y10500
X61319Y11500
X61319Y12500
X58319Y12500
X58319Y11500
X58319Y10500
X60819Y2875
X61819Y2875
X63069Y2875
X64069Y2875
X65319Y2875
X66319Y2875
X88694Y2625
X89694Y2625
T05
X83451Y2512
X82451Y2512
X81451Y2512
X80451Y2512
X79451Y2512
X78451Y2512
X77451Y2512
X76451Y2512
X74850Y2536
X73850Y2536
X72850Y2536
X71850Y2536
X70850Y2536
X69850Y2536
X68850Y2536
X67850Y2536
X85929Y17095
X87709Y17095
X87709Y19655
X85929Y19655
X79844Y21479
X78844Y21478
X77845Y21484
X76845Y21484
X75845Y21484
X74845Y21484
X72807Y21514
X71807Y21514
X70807Y21514
X69807Y21514
X68807Y21514
X67807Y21514
X84319Y24875
X84319Y25875
X84319Y26875
T06
X79100Y13766
X76539Y13764
X73100Y13766
X70539Y13764
X67100Y13766
X64539Y13764
X64538Y11985
X67100Y11986
X70538Y11985
X73100Y11986
X76538Y11985
X79100Y11986
X79539Y7764
X82100Y7766
X85539Y7764
X88100Y7766
X88100Y5986
X85538Y5985
X82100Y5986
X79538Y5985
X76100Y5986
X73538Y5985
X70100Y5986
X67538Y5985
X64100Y5986
X61538Y5985
X58100Y5986
X55538Y5985
X52100Y5986
X49538Y5985
X46100Y5986
X43538Y5985
X40100Y5986
X37538Y5985
X34100Y5986
X31538Y5985
X28100Y5986
X25538Y5985
X22100Y5986
X19538Y5985
X16100Y5986
X13538Y5985
X10100Y5986
X7538Y5985
X4100Y5986
X1538Y5985
X1539Y7764
X4100Y7766
X7539Y7764
X10100Y7766
X13539Y7764
X16100Y7766
X19539Y7764
X22100Y7766
X25539Y7764
X28100Y7766
X31539Y7764
X34100Y7766
X37539Y7764
X40100Y7766
X43539Y7764
X46100Y7766
X49539Y7764
X52100Y7766
X55539Y7764
X58100Y7766
X61539Y7764
X64100Y7766
X67539Y7764
X70100Y7766
X73539Y7764
X76100Y7766
X55100Y11986
X52538Y11985
X49100Y11986
X46538Y11985
X46539Y13764
X49100Y13766
X52539Y13764
X55100Y13766
X37100Y13766
X34539Y13764
X31100Y13766
X28539Y13764
X25100Y13766
X22539Y13764
X22538Y11985
X25100Y11986
X28538Y11985
X31100Y11986
X34538Y11985
X37100Y11986
X13100Y11986
X10538Y11985
X7100Y11986
X4538Y11985
X4539Y13764
X7100Y13766
X10539Y13764
X13100Y13766
T07
X88319Y26125
T08
X48694Y20750
X45694Y20000
X42694Y20750
X35194Y20750
X32194Y20000
X29194Y20750
X21694Y20750
X18694Y20000
X15694Y20750
X8194Y20750
X5194Y20000
X2194Y20750
T09
X88319Y24156
X90091Y26125
X88319Y28093
T10
X1819Y2775
X41819Y2775
X41819Y18025
X1819Y18025
X86819Y2525
M30
