G75*
G70*
%OFA0B0*%
%FSLAX24Y24*%
%IPPOS*%
%LPD*%
%AMOC8*
5,1,8,0,0,1.08239X$1,22.5*
%
%ADD10O,0.0600X0.1200*%
%ADD11O,0.0520X0.1040*%
%ADD12OC8,0.0520*%
%ADD13O,0.1200X0.0600*%
%ADD14OC8,0.0945*%
%ADD15OC8,0.1502*%
%ADD16C,0.0600*%
%ADD17C,0.0520*%
%ADD18O,0.1040X0.0520*%
%ADD19C,0.0650*%
%ADD20C,0.0160*%
%ADD21C,0.1266*%
%ADD22C,0.0400*%
%ADD23C,0.0436*%
%ADD24C,0.0396*%
D10*
X067850Y002536D03*
X068850Y002536D03*
X069850Y002536D03*
X070850Y002536D03*
X071850Y002536D03*
X072850Y002536D03*
X073850Y002536D03*
X074850Y002536D03*
X076451Y002512D03*
X077451Y002512D03*
X078451Y002512D03*
X079451Y002512D03*
X080451Y002512D03*
X081451Y002512D03*
X082451Y002512D03*
X083451Y002512D03*
X079844Y021479D03*
X078844Y021478D03*
X077845Y021484D03*
X076845Y021484D03*
X075845Y021484D03*
X074845Y021484D03*
X072807Y021514D03*
X071807Y021514D03*
X070807Y021514D03*
X069807Y021514D03*
X068807Y021514D03*
X067807Y021514D03*
D11*
X076069Y023625D03*
X077069Y023625D03*
X078069Y023625D03*
X079069Y023625D03*
X071194Y024625D03*
X070194Y024625D03*
X069194Y024625D03*
X068194Y024625D03*
X067194Y024625D03*
X066194Y024625D03*
X065194Y024625D03*
X064194Y024625D03*
X064194Y027625D03*
X065194Y027625D03*
X066194Y027625D03*
X067194Y027625D03*
X068194Y027625D03*
X069194Y027625D03*
X070194Y027625D03*
X071194Y027625D03*
X076069Y026625D03*
X077069Y026625D03*
X078069Y026625D03*
X079069Y026625D03*
D12*
X080569Y027375D03*
X081569Y027375D03*
X083069Y028375D03*
X084069Y028375D03*
X078569Y028375D03*
X077569Y028375D03*
X076569Y028375D03*
X075569Y028375D03*
X073819Y027875D03*
X073819Y026875D03*
X073819Y025125D03*
X073819Y024125D03*
X081569Y024875D03*
X082569Y024875D03*
X063569Y020375D03*
X063569Y019375D03*
X084319Y013625D03*
X084319Y012625D03*
X063819Y010750D03*
X063819Y009750D03*
X064069Y002875D03*
X063069Y002875D03*
X061819Y002875D03*
X060819Y002875D03*
X065319Y002875D03*
X066319Y002875D03*
X088694Y002625D03*
X089694Y002625D03*
D13*
X084319Y024875D03*
X084319Y025875D03*
X084319Y026875D03*
D14*
X088319Y026125D03*
D15*
X090091Y026125D03*
X088319Y028093D03*
X088319Y024156D03*
D16*
X087709Y019655D03*
X085929Y019655D03*
X085929Y017095D03*
X087709Y017095D03*
D17*
X086819Y013375D03*
X086819Y012375D03*
D18*
X061319Y012500D03*
X061319Y011500D03*
X061319Y010500D03*
X058319Y010500D03*
X058319Y011500D03*
X058319Y012500D03*
X058319Y013500D03*
X058319Y014500D03*
X058319Y015500D03*
X058319Y016500D03*
X058319Y017500D03*
X061319Y017500D03*
X061319Y016500D03*
X061319Y015500D03*
X061319Y014500D03*
X061319Y013500D03*
X061457Y019418D03*
X061457Y020418D03*
X061457Y021418D03*
X061457Y022418D03*
X061457Y023418D03*
X061457Y024418D03*
X058457Y024418D03*
X058457Y023418D03*
X058457Y022418D03*
X058457Y021418D03*
X058457Y020418D03*
X058457Y019418D03*
X058457Y025418D03*
X058457Y026418D03*
X061457Y026418D03*
X061457Y025418D03*
D19*
X064539Y013764D03*
X067100Y013766D03*
X070539Y013764D03*
X073100Y013766D03*
X076539Y013764D03*
X079100Y013766D03*
X079100Y011986D03*
X076538Y011985D03*
X073100Y011986D03*
X070538Y011985D03*
X067100Y011986D03*
X064538Y011985D03*
X055100Y011986D03*
X052538Y011985D03*
X049100Y011986D03*
X046538Y011985D03*
X046539Y013764D03*
X049100Y013766D03*
X052539Y013764D03*
X055100Y013766D03*
X055539Y007764D03*
X058100Y007766D03*
X061539Y007764D03*
X064100Y007766D03*
X067539Y007764D03*
X070100Y007766D03*
X073539Y007764D03*
X076100Y007766D03*
X079539Y007764D03*
X082100Y007766D03*
X085539Y007764D03*
X088100Y007766D03*
X088100Y005986D03*
X085538Y005985D03*
X082100Y005986D03*
X079538Y005985D03*
X076100Y005986D03*
X073538Y005985D03*
X070100Y005986D03*
X067538Y005985D03*
X064100Y005986D03*
X061538Y005985D03*
X058100Y005986D03*
X055538Y005985D03*
X052100Y005986D03*
X049538Y005985D03*
X046100Y005986D03*
X043538Y005985D03*
X040100Y005986D03*
X037538Y005985D03*
X034100Y005986D03*
X031538Y005985D03*
X028100Y005986D03*
X025538Y005985D03*
X022100Y005986D03*
X019538Y005985D03*
X016100Y005986D03*
X013538Y005985D03*
X010100Y005986D03*
X007538Y005985D03*
X004100Y005986D03*
X001538Y005985D03*
X001539Y007764D03*
X004100Y007766D03*
X007539Y007764D03*
X010100Y007766D03*
X013539Y007764D03*
X016100Y007766D03*
X019539Y007764D03*
X022100Y007766D03*
X025539Y007764D03*
X028100Y007766D03*
X031539Y007764D03*
X034100Y007766D03*
X037539Y007764D03*
X040100Y007766D03*
X043539Y007764D03*
X046100Y007766D03*
X049539Y007764D03*
X052100Y007766D03*
X037100Y011986D03*
X034538Y011985D03*
X031100Y011986D03*
X028538Y011985D03*
X025100Y011986D03*
X022538Y011985D03*
X022539Y013764D03*
X025100Y013766D03*
X028539Y013764D03*
X031100Y013766D03*
X034539Y013764D03*
X037100Y013766D03*
X013100Y013766D03*
X010539Y013764D03*
X007100Y013766D03*
X004539Y013764D03*
X004538Y011985D03*
X007100Y011986D03*
X010538Y011985D03*
X013100Y011986D03*
D20*
X006844Y005200D02*
X044544Y005200D01*
X052544Y013200D01*
X056294Y013200D01*
X056294Y013600D01*
X055244Y014050D02*
X055100Y013766D01*
X054794Y013800D01*
X052844Y013800D01*
X052539Y013764D01*
X051994Y013800D02*
X051994Y014600D01*
X055794Y018400D01*
X056594Y019000D02*
X056594Y023750D01*
X056894Y023450D02*
X057394Y023950D01*
X057394Y026350D01*
X057944Y026900D01*
X060569Y026900D01*
X060694Y026775D01*
X060694Y026050D01*
X061094Y025650D01*
X061457Y025418D01*
X062069Y024950D02*
X062194Y025075D01*
X062194Y025850D01*
X061844Y026200D01*
X061457Y026418D01*
X058457Y026418D02*
X058094Y026200D01*
X057694Y025800D01*
X057694Y020350D01*
X057294Y020350D01*
X057694Y020350D02*
X057694Y018000D01*
X057944Y017750D01*
X058319Y017500D01*
X059944Y017500D02*
X059944Y002500D01*
X060319Y002125D01*
X060819Y002125D01*
X060819Y002875D01*
X061819Y002875D02*
X061819Y003875D01*
X060569Y005125D01*
X060569Y006625D01*
X060819Y006875D01*
X063194Y006875D01*
X063707Y007387D01*
X063707Y007387D01*
X062694Y008400D01*
X062694Y023350D01*
X061844Y024200D01*
X061457Y024418D01*
X060994Y024950D02*
X060694Y024650D01*
X060694Y021700D01*
X060494Y021500D01*
X059569Y021450D02*
X059144Y021400D01*
X059544Y021375D01*
X059544Y012600D01*
X059544Y005600D01*
X058100Y005986D02*
X057794Y006000D01*
X055844Y006000D01*
X055538Y005985D01*
X055244Y006000D01*
X054994Y006000D01*
X054994Y011700D01*
X055100Y011986D01*
X054794Y012000D01*
X052844Y012000D01*
X052538Y011985D01*
X049594Y012800D02*
X052194Y015400D01*
X048544Y015950D02*
X056044Y023450D01*
X056044Y023800D01*
X056894Y023450D02*
X056894Y019100D01*
X056994Y019000D01*
X056994Y010700D01*
X057094Y010600D01*
X057394Y011300D02*
X057944Y010750D01*
X058319Y010500D01*
X058319Y011500D02*
X058694Y011750D01*
X059144Y012200D01*
X059144Y016000D01*
X059144Y019150D01*
X059194Y019200D01*
X059194Y019850D01*
X058844Y020200D01*
X058457Y020418D01*
X058344Y021325D02*
X058457Y021418D01*
X058344Y021325D02*
X059144Y021400D01*
X059569Y021450D02*
X059569Y024125D01*
X060344Y024900D01*
X060994Y024950D02*
X062069Y024950D01*
X063694Y025100D02*
X063944Y025350D01*
X065919Y025350D01*
X066044Y025225D01*
X066044Y025100D01*
X066194Y024625D01*
X066694Y024150D02*
X066694Y025100D01*
X064444Y027350D01*
X064194Y027625D01*
X063419Y028350D02*
X069594Y028350D01*
X069944Y028000D01*
X070194Y027625D01*
X068469Y026900D02*
X068344Y027025D01*
X068344Y027150D01*
X068194Y027625D01*
X067744Y025950D02*
X066444Y027250D01*
X066194Y027625D01*
X068469Y026900D02*
X069894Y026900D01*
X071694Y025100D01*
X071694Y023650D01*
X071744Y023650D01*
X073344Y022050D01*
X073344Y021000D01*
X072544Y020200D01*
X072544Y009250D01*
X072494Y008950D01*
X073394Y008050D01*
X073539Y007764D01*
X073844Y007800D01*
X075794Y007800D01*
X076100Y007766D01*
X079539Y007764D02*
X082694Y011050D01*
X082944Y011300D01*
X082944Y020750D01*
X080894Y021500D02*
X080894Y013000D01*
X078994Y011100D01*
X078994Y005450D01*
X081344Y003100D01*
X081451Y002512D01*
X082451Y002512D02*
X082444Y004100D01*
X082444Y004125D01*
X080869Y005700D01*
X080869Y005950D01*
X080819Y006000D01*
X079569Y005950D01*
X079538Y005985D01*
X079844Y006000D01*
X081794Y006000D01*
X082100Y005986D01*
X082394Y006000D01*
X085244Y006000D01*
X085538Y005985D01*
X085844Y006000D01*
X087794Y006000D01*
X088100Y005986D01*
X089069Y007125D02*
X089069Y004125D01*
X088694Y003750D01*
X088694Y002625D01*
X088694Y002500D01*
X089694Y002625D02*
X089819Y002625D01*
X089694Y002750D01*
X089694Y003250D01*
X089819Y003375D01*
X089819Y010375D01*
X086819Y013375D01*
X080469Y015275D02*
X079244Y014050D01*
X079100Y013766D01*
X078544Y014800D02*
X078544Y003900D01*
X079344Y003100D01*
X079451Y002512D01*
X078451Y002507D02*
X078444Y002500D01*
X078444Y003125D01*
X077944Y003625D01*
X077944Y004625D01*
X077344Y003100D02*
X077451Y002512D01*
X077344Y003100D02*
X077344Y011950D01*
X074244Y015050D01*
X074244Y021950D01*
X074744Y022450D01*
X075144Y022600D02*
X075144Y022650D01*
X074944Y022850D01*
X073344Y022850D01*
X073344Y024550D01*
X073694Y024900D01*
X073819Y025125D01*
X073844Y025350D01*
X073844Y026650D01*
X073819Y026875D01*
X074294Y027000D02*
X074294Y024275D01*
X074244Y024100D01*
X073944Y024150D01*
X073819Y024125D01*
X072494Y023500D02*
X072494Y028400D01*
X072244Y028650D01*
X059244Y028650D01*
X057644Y027050D01*
X057644Y027000D01*
X050144Y019500D01*
X049519Y018900D01*
X044844Y018900D01*
X044794Y018950D01*
X043119Y018950D01*
X042694Y019375D01*
X039069Y019375D01*
X038669Y019775D01*
X038469Y019775D01*
X035094Y020150D02*
X035194Y020750D01*
X035194Y020875D01*
X035094Y020150D02*
X035094Y018200D01*
X032744Y016350D02*
X018844Y016350D01*
X010394Y007900D01*
X010100Y007766D01*
X009794Y007800D01*
X007844Y007800D01*
X007539Y007764D01*
X006844Y005200D02*
X004394Y007650D01*
X004100Y007766D01*
X003794Y007800D01*
X001844Y007800D01*
X001539Y007764D01*
X001538Y005985D02*
X001844Y006000D01*
X003794Y006000D01*
X004100Y005986D01*
X007538Y005985D02*
X007844Y006000D01*
X009794Y006000D01*
X010100Y005986D01*
X010394Y006000D01*
X013244Y006000D01*
X013538Y005985D01*
X013844Y006000D01*
X015794Y006000D01*
X016100Y005986D01*
X016394Y006000D01*
X019244Y006000D01*
X019538Y005985D01*
X019844Y006000D01*
X021794Y006000D01*
X022100Y005986D01*
X022394Y006000D01*
X025244Y006000D01*
X025538Y005985D01*
X025844Y006000D01*
X027794Y006000D01*
X028100Y005986D01*
X028394Y006000D01*
X031244Y006000D01*
X031538Y005985D01*
X031844Y006000D01*
X033794Y006000D01*
X034100Y005986D01*
X034394Y006000D01*
X036994Y006000D01*
X036994Y011700D01*
X037100Y011986D01*
X036794Y012000D01*
X034844Y012000D01*
X034538Y011985D01*
X033994Y012200D02*
X034994Y013200D01*
X043619Y013200D01*
X043744Y013325D01*
X044994Y014600D01*
X045994Y014000D02*
X054344Y022350D01*
X056194Y021350D02*
X056194Y015000D01*
X055244Y014050D01*
X051994Y013800D02*
X046244Y008050D01*
X046100Y007766D01*
X045794Y007800D01*
X043844Y007800D01*
X043539Y007764D01*
X040244Y008050D02*
X040100Y007766D01*
X039794Y007800D01*
X037844Y007800D01*
X037539Y007764D01*
X040244Y008050D02*
X045994Y013800D01*
X045994Y014000D01*
X046539Y013764D02*
X046844Y013800D01*
X048794Y013800D01*
X049100Y013766D01*
X049394Y013900D01*
X055794Y020300D01*
X057294Y019300D02*
X057394Y019200D01*
X057394Y011300D01*
X060244Y012450D02*
X060244Y017200D01*
X060594Y017550D01*
X060594Y019700D01*
X061094Y020200D01*
X061457Y020418D01*
X062194Y020000D02*
X062194Y020850D01*
X061844Y021200D01*
X061457Y021418D01*
X063294Y022100D02*
X063294Y028225D01*
X063419Y028350D01*
X059194Y029000D02*
X080319Y029000D01*
X080694Y028625D01*
X081444Y028625D01*
X082944Y027125D01*
X082944Y026500D01*
X083569Y025875D01*
X084319Y025875D01*
X082569Y024875D02*
X082444Y025100D01*
X081694Y025850D01*
X081694Y027150D01*
X081569Y027375D01*
X084069Y027625D02*
X084094Y027625D01*
X084819Y027625D01*
X085069Y027875D01*
X085069Y028875D01*
X084444Y029500D01*
X058944Y029500D01*
X050194Y020750D01*
X048694Y020750D01*
X047819Y020000D02*
X048069Y019750D01*
X049944Y019750D01*
X059194Y029000D01*
X067694Y025900D02*
X067744Y025950D01*
X067694Y025900D02*
X067694Y024150D01*
X067744Y024100D01*
X067744Y023300D01*
X067294Y022850D01*
X067294Y018300D01*
X070794Y014800D01*
X069944Y014100D02*
X066594Y017450D01*
X066594Y021350D01*
X068244Y022350D02*
X068344Y022450D01*
X068344Y024150D01*
X068194Y024625D01*
X067044Y023800D02*
X066994Y023750D01*
X066994Y017450D01*
X070394Y014050D01*
X070539Y013764D01*
X069544Y013550D02*
X069544Y009375D01*
X068819Y009375D01*
X069544Y009375D02*
X069569Y009375D01*
X069544Y009375D02*
X069544Y005375D01*
X069694Y005225D01*
X069744Y005200D01*
X070394Y005200D01*
X072594Y003000D01*
X072850Y002536D01*
X074594Y003000D02*
X074850Y002536D01*
X074594Y003000D02*
X071744Y005850D01*
X071694Y005850D01*
X071694Y006875D01*
X071069Y006875D01*
X071694Y006875D02*
X071694Y011600D01*
X070644Y012650D01*
X073100Y011986D02*
X073394Y012000D01*
X073894Y012000D01*
X073894Y022050D01*
X073744Y022275D01*
X073394Y022600D01*
X073344Y022650D01*
X073344Y022850D01*
X075144Y022600D02*
X075694Y022050D01*
X075845Y021484D01*
X076144Y021500D01*
X076594Y021500D01*
X076845Y021484D01*
X077845Y021484D02*
X077994Y022050D01*
X078944Y023000D01*
X078944Y023150D01*
X079069Y023625D01*
X080469Y023225D02*
X077794Y025900D01*
X074819Y025900D01*
X074694Y026025D01*
X074694Y026300D01*
X077069Y026625D02*
X077194Y027100D01*
X077444Y027350D01*
X077444Y028150D01*
X077569Y028375D01*
X077344Y028400D01*
X076794Y028400D01*
X076569Y028375D01*
X075569Y028375D02*
X075444Y028150D01*
X074294Y027000D01*
X078069Y026625D02*
X078194Y027100D01*
X078444Y027350D01*
X078444Y028150D01*
X078569Y028375D01*
X084069Y028375D02*
X084094Y028150D01*
X084094Y027625D01*
X084094Y027150D01*
X084319Y026875D01*
X088319Y028093D02*
X088944Y027700D01*
X089794Y026850D01*
X090091Y026125D01*
X089794Y025400D01*
X088944Y024550D01*
X088319Y024156D01*
X087144Y023700D01*
X087144Y020400D01*
X087594Y019950D01*
X087709Y019655D01*
X087694Y019400D01*
X087694Y017350D01*
X087709Y017095D01*
X085929Y017095D02*
X085944Y017350D01*
X085944Y019400D01*
X085929Y019655D01*
X077894Y022650D02*
X077294Y023250D01*
X077069Y023625D01*
X077294Y024000D01*
X080469Y023225D02*
X080469Y015275D01*
X078544Y014800D02*
X074644Y018700D01*
X065344Y019850D02*
X065344Y009150D01*
X064244Y008050D01*
X064100Y007766D01*
X063707Y007387D02*
X063707Y007362D01*
X065069Y006000D01*
X065069Y004750D01*
X065469Y004350D01*
X065494Y004350D01*
X065694Y003875D02*
X066069Y004250D01*
X066069Y008625D01*
X066819Y009375D01*
X069944Y008100D02*
X069994Y008050D01*
X070100Y007766D01*
X069944Y008100D02*
X069944Y014100D01*
X068094Y011850D02*
X065744Y014200D01*
X064944Y014300D02*
X064694Y014050D01*
X064539Y013764D01*
X064944Y014300D02*
X064944Y020300D01*
X064294Y020950D01*
X064294Y023400D01*
X065044Y024150D01*
X065194Y024625D01*
X063694Y025100D02*
X063694Y021500D01*
X063894Y021300D01*
X062194Y020000D02*
X061844Y019650D01*
X061457Y019418D01*
X061844Y019200D01*
X062044Y019000D01*
X062044Y013100D01*
X061694Y012750D01*
X061319Y012500D01*
X060944Y011750D02*
X060244Y012450D01*
X060944Y011750D02*
X061319Y011500D01*
X063569Y011500D02*
X063819Y011250D01*
X063819Y010750D01*
X063569Y011500D02*
X063569Y017250D01*
X063569Y019375D01*
X061319Y017500D02*
X060944Y017250D01*
X060594Y016900D01*
X060594Y014100D01*
X060644Y014050D01*
X068094Y011850D02*
X068094Y006075D01*
X070819Y003375D01*
X070850Y002536D01*
X066444Y003375D02*
X066444Y006625D01*
X066694Y006875D01*
X064100Y005986D02*
X063794Y006000D01*
X061844Y006000D01*
X061538Y005985D01*
X058100Y007766D02*
X057794Y007800D01*
X056694Y007800D01*
X056694Y018900D01*
X056594Y019000D01*
X056744Y025350D02*
X048494Y017100D01*
X048494Y017025D01*
X048369Y016900D01*
X040394Y016900D01*
X037394Y013900D01*
X037100Y013766D01*
X036794Y013800D01*
X034844Y013800D01*
X034539Y013764D01*
X033769Y013900D02*
X033769Y013575D01*
X028244Y008050D01*
X028100Y007766D01*
X027794Y007800D01*
X025844Y007800D01*
X025539Y007764D01*
X022100Y007766D02*
X021794Y007800D01*
X019844Y007800D01*
X019539Y007764D01*
X016100Y007766D02*
X015794Y007800D01*
X013844Y007800D01*
X013539Y007764D01*
X013100Y011986D02*
X012794Y012000D01*
X010844Y012000D01*
X010538Y011985D01*
X010244Y012000D01*
X007394Y012000D01*
X007100Y011986D01*
X006794Y012000D01*
X004844Y012000D01*
X004538Y011985D01*
X004680Y011985D01*
X004694Y012000D01*
X003944Y012000D01*
X003569Y012375D01*
X003569Y018500D01*
X015694Y018500D01*
X027069Y018500D01*
X029194Y020625D01*
X029194Y020750D01*
X031644Y013900D02*
X039344Y021600D01*
X045694Y020000D02*
X047819Y020000D01*
X031644Y013900D02*
X031100Y013766D01*
X030794Y013800D01*
X028844Y013800D01*
X028539Y013764D01*
X025100Y013766D02*
X024794Y013800D01*
X022844Y013800D01*
X022539Y013764D01*
X022538Y011985D02*
X022844Y012000D01*
X024794Y012000D01*
X025100Y011986D01*
X025394Y012000D01*
X028244Y012000D01*
X028538Y011985D01*
X028844Y012000D01*
X030794Y012000D01*
X031100Y011986D01*
X033994Y012200D02*
X033994Y008050D01*
X034100Y007766D01*
X033794Y007800D01*
X031844Y007800D01*
X031539Y007764D01*
X036994Y006000D02*
X037244Y006000D01*
X037538Y005985D01*
X037844Y006000D01*
X039794Y006000D01*
X040100Y005986D01*
X040394Y006000D01*
X043244Y006000D01*
X043538Y005985D01*
X046100Y005986D02*
X046394Y006000D01*
X049244Y006000D01*
X049538Y005985D01*
X049844Y006000D01*
X051794Y006000D01*
X052100Y005986D01*
X052394Y006000D01*
X054994Y006000D01*
X055539Y007764D02*
X055844Y007800D01*
X056694Y007800D01*
X052100Y007766D02*
X051794Y007800D01*
X049844Y007800D01*
X049539Y007764D01*
X049100Y011986D02*
X048794Y012000D01*
X046844Y012000D01*
X046538Y011985D01*
X064069Y003500D02*
X064444Y003875D01*
X065694Y003875D01*
X066319Y003250D02*
X066444Y003375D01*
X066319Y003250D02*
X066319Y002875D01*
X065319Y002875D02*
X064569Y002125D01*
X063069Y002125D01*
X063069Y002875D01*
X064069Y002875D02*
X064069Y003500D01*
X063069Y002125D02*
X060819Y002125D01*
X073538Y005985D02*
X073844Y006000D01*
X075794Y006000D01*
X076100Y005986D01*
X079539Y007764D02*
X079844Y007800D01*
X081794Y007800D01*
X082100Y007766D01*
X085539Y007764D02*
X085844Y007800D01*
X087794Y007800D01*
X088100Y007766D01*
X088428Y007766D01*
X089069Y007125D01*
X078451Y002512D02*
X078451Y002507D01*
X076538Y011985D02*
X076244Y012000D01*
X073894Y012000D01*
X071094Y023500D02*
X071094Y024150D01*
X071194Y024625D01*
X070194Y024625D02*
X070044Y024150D01*
X069494Y023600D01*
X069494Y023500D01*
X067044Y023800D02*
X066694Y024150D01*
X015694Y020750D02*
X015694Y018500D01*
X008194Y020750D02*
X008194Y021125D01*
X003569Y019375D02*
X003569Y018500D01*
X003569Y019375D02*
X002194Y020750D01*
X004539Y013764D02*
X004844Y013800D01*
X006794Y013800D01*
X007100Y013766D01*
X010539Y013764D02*
X010844Y013800D01*
X012794Y013800D01*
X013100Y013766D01*
D21*
X018694Y020000D03*
X021694Y020750D03*
X015694Y020750D03*
X008194Y020750D03*
X005194Y020000D03*
X002194Y020750D03*
X029194Y020750D03*
X032194Y020000D03*
X035194Y020750D03*
X042694Y020750D03*
X045694Y020000D03*
X048694Y020750D03*
D22*
X054344Y022350D03*
X056194Y021350D03*
X055794Y020300D03*
X057294Y020350D03*
X057294Y019300D03*
X055794Y018400D03*
X059944Y017500D03*
X059144Y016000D03*
X060644Y014050D03*
X059544Y012600D03*
X056294Y013600D03*
X052194Y015400D03*
X048544Y015950D03*
X044994Y014600D03*
X049594Y012800D03*
X057094Y010600D03*
X065744Y014200D03*
X069544Y013550D03*
X070644Y012650D03*
X070794Y014800D03*
X074644Y018700D03*
X082944Y020750D03*
X080894Y021500D03*
X077894Y022650D03*
X074744Y022450D03*
X072494Y023500D03*
X071094Y023500D03*
X069494Y023500D03*
X068244Y022350D03*
X066594Y021350D03*
X063894Y021300D03*
X063294Y022100D03*
X060494Y021500D03*
X065344Y019850D03*
X056594Y023750D03*
X056044Y023800D03*
X056744Y025350D03*
X060344Y024900D03*
X074694Y026300D03*
X039344Y021600D03*
X038469Y019775D03*
X035094Y018200D03*
X032744Y016350D03*
X033769Y013900D03*
X059544Y005600D03*
X065494Y004350D03*
D23*
X063569Y017250D03*
D24*
X066819Y009375D03*
X068819Y009375D03*
X066694Y006875D03*
X071069Y006875D03*
X077944Y004625D03*
M02*
