G75*
G70*
%OFA0B0*%
%FSLAX24Y24*%
%IPPOS*%
%LPD*%
%AMOC8*
5,1,8,0,0,1.08239X$1,22.5*
%
%ADD10O,0.0600X0.1200*%
%ADD11O,0.0520X0.1040*%
%ADD12OC8,0.0520*%
%ADD13O,0.1200X0.0600*%
%ADD14OC8,0.0945*%
%ADD15OC8,0.1502*%
%ADD16C,0.0600*%
%ADD17C,0.0520*%
%ADD18O,0.1040X0.0520*%
%ADD19C,0.0650*%
%ADD20C,0.0160*%
%ADD21C,0.1266*%
%ADD22C,0.0400*%
%ADD23C,0.0436*%
%ADD24C,0.0396*%
D10*
X067850Y002536D03*
X068850Y002536D03*
X069850Y002536D03*
X070850Y002536D03*
X071850Y002536D03*
X072850Y002536D03*
X073850Y002536D03*
X074850Y002536D03*
X076451Y002512D03*
X077451Y002512D03*
X078451Y002512D03*
X079451Y002512D03*
X080451Y002512D03*
X081451Y002512D03*
X082451Y002512D03*
X083451Y002512D03*
X079844Y021479D03*
X078844Y021478D03*
X077845Y021484D03*
X076845Y021484D03*
X075845Y021484D03*
X074845Y021484D03*
X072807Y021514D03*
X071807Y021514D03*
X070807Y021514D03*
X069807Y021514D03*
X068807Y021514D03*
X067807Y021514D03*
D11*
X076069Y023625D03*
X077069Y023625D03*
X078069Y023625D03*
X079069Y023625D03*
X071194Y024625D03*
X070194Y024625D03*
X069194Y024625D03*
X068194Y024625D03*
X067194Y024625D03*
X066194Y024625D03*
X065194Y024625D03*
X064194Y024625D03*
X064194Y027625D03*
X065194Y027625D03*
X066194Y027625D03*
X067194Y027625D03*
X068194Y027625D03*
X069194Y027625D03*
X070194Y027625D03*
X071194Y027625D03*
X076069Y026625D03*
X077069Y026625D03*
X078069Y026625D03*
X079069Y026625D03*
D12*
X080569Y027375D03*
X081569Y027375D03*
X083069Y028375D03*
X084069Y028375D03*
X078569Y028375D03*
X077569Y028375D03*
X076569Y028375D03*
X075569Y028375D03*
X073819Y027875D03*
X073819Y026875D03*
X073819Y025125D03*
X073819Y024125D03*
X081569Y024875D03*
X082569Y024875D03*
X063569Y020375D03*
X063569Y019375D03*
X084319Y013625D03*
X084319Y012625D03*
X063819Y010750D03*
X063819Y009750D03*
X064069Y002875D03*
X063069Y002875D03*
X061819Y002875D03*
X060819Y002875D03*
X065319Y002875D03*
X066319Y002875D03*
X088694Y002625D03*
X089694Y002625D03*
D13*
X084319Y024875D03*
X084319Y025875D03*
X084319Y026875D03*
D14*
X088319Y026125D03*
D15*
X090091Y026125D03*
X088319Y028093D03*
X088319Y024156D03*
D16*
X087709Y019655D03*
X085929Y019655D03*
X085929Y017095D03*
X087709Y017095D03*
D17*
X086819Y013375D03*
X086819Y012375D03*
D18*
X061319Y012500D03*
X061319Y011500D03*
X061319Y010500D03*
X058319Y010500D03*
X058319Y011500D03*
X058319Y012500D03*
X058319Y013500D03*
X058319Y014500D03*
X058319Y015500D03*
X058319Y016500D03*
X058319Y017500D03*
X061319Y017500D03*
X061319Y016500D03*
X061319Y015500D03*
X061319Y014500D03*
X061319Y013500D03*
X061457Y019418D03*
X061457Y020418D03*
X061457Y021418D03*
X061457Y022418D03*
X061457Y023418D03*
X061457Y024418D03*
X058457Y024418D03*
X058457Y023418D03*
X058457Y022418D03*
X058457Y021418D03*
X058457Y020418D03*
X058457Y019418D03*
X058457Y025418D03*
X058457Y026418D03*
X061457Y026418D03*
X061457Y025418D03*
D19*
X001538Y005985D03*
X004100Y005986D03*
X007538Y005985D03*
X010100Y005986D03*
X013538Y005985D03*
X016100Y005986D03*
X019538Y005985D03*
X022100Y005986D03*
X025538Y005985D03*
X028100Y005986D03*
X031538Y005985D03*
X034100Y005986D03*
X037538Y005985D03*
X040100Y005986D03*
X043538Y005985D03*
X046100Y005986D03*
X049538Y005985D03*
X052100Y005986D03*
X055538Y005985D03*
X058100Y005986D03*
X061538Y005985D03*
X064100Y005986D03*
X067538Y005985D03*
X070100Y005986D03*
X073538Y005985D03*
X076100Y005986D03*
X079538Y005985D03*
X082100Y005986D03*
X085538Y005985D03*
X088100Y005986D03*
X088100Y007766D03*
X085539Y007764D03*
X082100Y007766D03*
X079539Y007764D03*
X076100Y007766D03*
X073539Y007764D03*
X070100Y007766D03*
X067539Y007764D03*
X064100Y007766D03*
X061539Y007764D03*
X058100Y007766D03*
X055539Y007764D03*
X052100Y007766D03*
X049539Y007764D03*
X046100Y007766D03*
X043539Y007764D03*
X040100Y007766D03*
X037539Y007764D03*
X034100Y007766D03*
X031539Y007764D03*
X028100Y007766D03*
X025539Y007764D03*
X022100Y007766D03*
X019539Y007764D03*
X016100Y007766D03*
X013539Y007764D03*
X010100Y007766D03*
X007539Y007764D03*
X004100Y007766D03*
X001539Y007764D03*
X004538Y011985D03*
X007100Y011986D03*
X010538Y011985D03*
X013100Y011986D03*
X013100Y013766D03*
X010539Y013764D03*
X007100Y013766D03*
X004539Y013764D03*
X022539Y013764D03*
X025100Y013766D03*
X028539Y013764D03*
X031100Y013766D03*
X034539Y013764D03*
X037100Y013766D03*
X037100Y011986D03*
X034538Y011985D03*
X031100Y011986D03*
X028538Y011985D03*
X025100Y011986D03*
X022538Y011985D03*
X046538Y011985D03*
X049100Y011986D03*
X052538Y011985D03*
X055100Y011986D03*
X055100Y013766D03*
X052539Y013764D03*
X049100Y013766D03*
X046539Y013764D03*
X064539Y013764D03*
X067100Y013766D03*
X070539Y013764D03*
X073100Y013766D03*
X076539Y013764D03*
X079100Y013766D03*
X079100Y011986D03*
X076538Y011985D03*
X073100Y011986D03*
X070538Y011985D03*
X067100Y011986D03*
X064538Y011985D03*
D20*
X064244Y012150D01*
X064044Y012350D01*
X063244Y012350D01*
X062319Y012375D01*
X062319Y010500D01*
X061319Y010500D01*
X062194Y010500D01*
X062944Y009750D01*
X063819Y009750D01*
X061319Y010500D02*
X060994Y010250D01*
X060994Y006000D01*
X058394Y006000D01*
X058100Y005986D01*
X057544Y005750D02*
X057544Y010350D01*
X057844Y010350D01*
X058319Y010500D01*
X057094Y010600D02*
X055094Y010600D01*
X052394Y007900D01*
X052100Y007766D01*
X057544Y005750D02*
X059644Y003650D01*
X068944Y003650D01*
X069594Y003000D01*
X069850Y002536D01*
X070769Y003950D02*
X071719Y003000D01*
X071850Y002536D01*
X072469Y004250D02*
X073719Y003000D01*
X073850Y002536D01*
X076451Y002512D02*
X076494Y002900D01*
X077244Y003650D01*
X085969Y003650D01*
X086094Y003775D01*
X086094Y009750D01*
X084444Y011400D01*
X084319Y012625D01*
X085044Y013625D02*
X086544Y012500D01*
X086594Y012500D01*
X086819Y012375D01*
X086819Y013375D02*
X086594Y013500D01*
X079444Y020650D01*
X078594Y020650D01*
X078144Y021100D01*
X077845Y021484D01*
X077594Y021050D01*
X074594Y018050D01*
X071644Y018050D01*
X071569Y018025D01*
X063569Y018025D01*
X063569Y017250D01*
X063569Y018025D02*
X060519Y018025D01*
X060094Y017600D01*
X059944Y017500D01*
X058319Y017500D01*
X057844Y017000D02*
X060494Y017000D01*
X060844Y016650D01*
X061319Y016500D01*
X059144Y016000D02*
X063944Y016000D01*
X065744Y014200D01*
X064844Y013800D02*
X064539Y013764D01*
X064844Y013800D02*
X066794Y013800D01*
X067100Y013766D01*
X069544Y013550D02*
X070794Y014800D01*
X070844Y013800D02*
X070539Y013764D01*
X070844Y013800D02*
X072794Y013800D01*
X073100Y013766D01*
X070644Y012650D02*
X064494Y012650D01*
X061794Y015350D01*
X061319Y015500D01*
X060494Y015000D02*
X060844Y014650D01*
X061319Y014500D01*
X060494Y015000D02*
X046994Y015000D01*
X046194Y014200D01*
X044794Y014200D01*
X044694Y014300D01*
X034169Y014300D01*
X033769Y013900D01*
X037969Y016350D02*
X039069Y015250D01*
X044569Y015250D01*
X045694Y016375D01*
X057844Y016350D01*
X058319Y016500D01*
X057844Y017000D02*
X057744Y016900D01*
X045444Y016875D01*
X044319Y015750D01*
X039319Y015750D01*
X038169Y016900D01*
X028394Y016900D01*
X025394Y013900D01*
X025100Y013766D01*
X019944Y011450D02*
X056294Y011450D01*
X057844Y013000D01*
X059594Y013000D01*
X060644Y014050D01*
X061319Y013500D02*
X061044Y013250D01*
X058794Y011000D01*
X025494Y011000D01*
X022394Y007900D01*
X022100Y007766D01*
X019944Y011450D02*
X016394Y007900D01*
X016100Y007766D01*
X007538Y005985D02*
X007244Y006000D01*
X006994Y006000D01*
X006994Y011700D01*
X007100Y011986D01*
X008244Y012800D02*
X049594Y012800D01*
X049394Y012000D02*
X049100Y011986D01*
X049394Y012000D02*
X052244Y012000D01*
X052538Y011985D01*
X056294Y013600D02*
X057044Y014350D01*
X057844Y014350D01*
X058319Y014500D01*
X058319Y015500D02*
X057844Y015400D01*
X052194Y015400D01*
X048544Y015950D02*
X046344Y015950D01*
X044994Y014600D01*
X044194Y016250D02*
X045194Y017250D01*
X057069Y017250D01*
X058194Y018375D01*
X069819Y018375D01*
X072544Y021100D01*
X072807Y021514D01*
X071807Y021514D02*
X071544Y021100D01*
X069194Y018750D01*
X058069Y018750D01*
X057069Y017750D01*
X044944Y017750D01*
X043819Y016625D01*
X039694Y016625D01*
X038569Y017750D01*
X020819Y017750D01*
X018694Y019875D01*
X018694Y020000D01*
X021694Y020750D02*
X021694Y021750D01*
X012194Y021750D01*
X011194Y020750D01*
X008194Y020750D01*
X005794Y019750D02*
X005194Y020000D01*
X005794Y019750D02*
X008244Y017300D01*
X038394Y017300D01*
X039444Y016250D01*
X044194Y016250D01*
X045144Y017250D02*
X045194Y017250D01*
X041294Y019150D02*
X040344Y018200D01*
X035094Y018200D01*
X031194Y018625D02*
X029194Y020625D01*
X029194Y020750D01*
X032194Y020000D02*
X033044Y019775D01*
X038469Y019775D01*
X041294Y019150D02*
X056094Y019150D01*
X057294Y020350D01*
X057344Y019950D02*
X058944Y019950D01*
X060494Y021500D01*
X060294Y021900D02*
X058944Y020550D01*
X058457Y020418D01*
X058944Y020950D02*
X060344Y022350D01*
X060944Y022350D01*
X061457Y022418D01*
X061894Y021900D02*
X060294Y021900D01*
X059544Y021950D02*
X060944Y023350D01*
X061457Y023418D01*
X062544Y023950D02*
X063944Y025350D01*
X066594Y025350D01*
X066944Y025000D01*
X067194Y024625D01*
X068294Y025650D02*
X068944Y025000D01*
X069194Y024625D01*
X069494Y023500D02*
X069044Y023050D01*
X063044Y023050D01*
X061894Y021900D01*
X061844Y020650D02*
X063294Y022100D01*
X063894Y021300D02*
X065344Y019850D01*
X063569Y020375D02*
X063194Y020375D01*
X062319Y019500D01*
X061569Y019500D01*
X061457Y019387D01*
X061457Y019418D01*
X061457Y019387D02*
X061444Y019375D01*
X061894Y019900D02*
X059294Y019900D01*
X058944Y019550D01*
X058457Y019418D01*
X057944Y019350D01*
X057344Y019350D01*
X057294Y019300D01*
X057344Y019950D02*
X055794Y018400D01*
X055794Y020300D02*
X056444Y020950D01*
X058944Y020950D01*
X061457Y020418D02*
X061844Y020650D01*
X061894Y019900D02*
X064744Y022750D01*
X070344Y022750D01*
X071094Y023500D01*
X072494Y023500D02*
X071044Y022050D01*
X070994Y022050D01*
X070807Y021514D01*
X070544Y021100D01*
X068244Y022350D02*
X067594Y022350D01*
X066594Y021350D01*
X064794Y023900D02*
X073694Y023900D01*
X073819Y024125D01*
X073944Y024350D01*
X078494Y024350D01*
X078844Y024000D01*
X079069Y023625D01*
X078069Y023625D02*
X077844Y023250D01*
X077044Y022450D01*
X074744Y022450D01*
X074344Y022650D02*
X074544Y022850D01*
X075444Y022850D01*
X075844Y023250D01*
X076069Y023625D01*
X074344Y022650D02*
X074344Y019075D01*
X074644Y018700D01*
X080094Y021050D02*
X081194Y019950D01*
X085444Y019950D01*
X085644Y019750D01*
X085929Y019655D01*
X082944Y020750D02*
X077794Y025900D01*
X068794Y025900D01*
X067444Y027250D01*
X067194Y027625D01*
X068569Y028350D02*
X065794Y028350D01*
X065444Y028000D01*
X065194Y027625D01*
X068569Y028350D02*
X068694Y028225D01*
X068694Y027150D01*
X069444Y026400D01*
X074594Y026400D01*
X074694Y026300D01*
X074044Y026750D02*
X073819Y026875D01*
X073594Y027000D01*
X071694Y027000D01*
X071444Y027250D01*
X071194Y027625D01*
X070944Y028000D01*
X070594Y028350D01*
X069794Y028350D01*
X069444Y028000D01*
X069194Y027625D01*
X073819Y027875D02*
X074044Y027900D01*
X075994Y027900D01*
X076344Y028250D01*
X076569Y028375D01*
X076644Y027350D02*
X076294Y027000D01*
X076069Y026625D01*
X075844Y026750D01*
X074044Y026750D01*
X076644Y027350D02*
X077494Y027350D01*
X077844Y027000D01*
X078069Y026625D01*
X078294Y026250D01*
X079544Y025000D01*
X081344Y025000D01*
X081569Y024875D01*
X081794Y025000D01*
X082144Y025350D01*
X083394Y025350D01*
X083744Y025000D01*
X084319Y024875D01*
X084894Y024750D01*
X084944Y024700D01*
X086094Y024700D01*
X088319Y024156D01*
X084894Y026000D02*
X084319Y025875D01*
X084894Y026000D02*
X085044Y026150D01*
X086394Y026150D01*
X088319Y026125D01*
X083069Y028375D02*
X082844Y028250D01*
X082094Y027500D01*
X081794Y027500D01*
X081569Y027375D01*
X080569Y027375D02*
X080344Y027250D01*
X079544Y027250D01*
X079294Y027000D01*
X079069Y026625D01*
X068294Y025650D02*
X062644Y025650D01*
X061894Y024900D01*
X060344Y024900D01*
X058457Y024418D02*
X057944Y024350D01*
X056594Y024350D01*
X056044Y023800D01*
X056594Y023750D02*
X056794Y023950D01*
X062544Y023950D01*
X064194Y024625D02*
X064444Y024250D01*
X064794Y023900D01*
X059544Y021950D02*
X056794Y021950D01*
X056194Y021350D01*
X057944Y022350D02*
X054344Y022350D01*
X054744Y023350D02*
X053244Y021850D01*
X039594Y021850D01*
X039344Y021600D01*
X040194Y018625D02*
X042444Y020750D01*
X042694Y020750D01*
X040194Y018625D02*
X031194Y018625D01*
X032744Y016350D02*
X037969Y016350D01*
X035194Y020750D02*
X034194Y021750D01*
X021694Y021750D01*
X013394Y013650D02*
X013100Y013766D01*
X013394Y013650D02*
X013844Y013200D01*
X057644Y013200D01*
X057794Y013350D01*
X057844Y013350D01*
X058319Y013500D01*
X058319Y012500D02*
X058794Y012600D01*
X059544Y012600D01*
X061319Y012500D02*
X061794Y012350D01*
X063244Y012350D01*
X064538Y011985D02*
X064844Y012000D01*
X066794Y012000D01*
X067100Y011986D01*
X067394Y012000D01*
X070244Y012000D01*
X070538Y011985D01*
X070844Y012000D01*
X072794Y012000D01*
X073100Y011986D01*
X076538Y011985D02*
X076844Y012000D01*
X078794Y012000D01*
X079100Y011986D01*
X079100Y013766D02*
X078794Y013800D01*
X076844Y013800D01*
X076539Y013764D01*
X084319Y013625D02*
X085044Y013625D01*
X068819Y009375D02*
X066819Y009375D01*
X067539Y007764D02*
X067844Y007800D01*
X069794Y007800D01*
X070100Y007766D01*
X071069Y006875D02*
X066694Y006875D01*
X067244Y006000D02*
X064394Y006000D01*
X064100Y005986D01*
X061538Y005985D02*
X061244Y006000D01*
X060994Y006000D01*
X059544Y005600D02*
X061194Y003950D01*
X070769Y003950D01*
X072469Y004250D02*
X065719Y004250D01*
X065494Y004350D01*
X067244Y006000D02*
X067538Y005985D01*
X067844Y006000D01*
X069794Y006000D01*
X070100Y005986D01*
X070394Y006000D01*
X073244Y006000D01*
X073538Y005985D01*
X076100Y005986D02*
X076394Y006000D01*
X079244Y006000D01*
X079538Y005985D01*
X077969Y004650D02*
X077944Y004625D01*
X077969Y004650D02*
X082244Y004650D01*
X085244Y007650D01*
X085539Y007764D01*
X064100Y007766D02*
X063794Y007800D01*
X061844Y007800D01*
X061539Y007764D01*
X046100Y005986D02*
X045794Y006000D01*
X043844Y006000D01*
X043538Y005985D01*
X034538Y011985D02*
X034244Y012000D01*
X031394Y012000D01*
X031100Y011986D01*
X008244Y012800D02*
X007394Y013650D01*
X007100Y013766D01*
X006994Y006000D02*
X004394Y006000D01*
X004100Y005986D01*
X054744Y023350D02*
X057944Y023350D01*
X058457Y023418D01*
X058457Y022418D02*
X057944Y022350D01*
X057944Y025350D02*
X056744Y025350D01*
X057944Y025350D02*
X058457Y025418D01*
X077894Y022650D02*
X079744Y022650D01*
X080894Y021500D01*
X080094Y021050D02*
X079844Y021479D01*
D21*
X048694Y020750D03*
X045694Y020000D03*
X042694Y020750D03*
X035194Y020750D03*
X032194Y020000D03*
X029194Y020750D03*
X021694Y020750D03*
X018694Y020000D03*
X015694Y020750D03*
X008194Y020750D03*
X005194Y020000D03*
X002194Y020750D03*
D22*
X032744Y016350D03*
X035094Y018200D03*
X038469Y019775D03*
X039344Y021600D03*
X054344Y022350D03*
X056194Y021350D03*
X055794Y020300D03*
X057294Y020350D03*
X057294Y019300D03*
X055794Y018400D03*
X059944Y017500D03*
X059144Y016000D03*
X060644Y014050D03*
X059544Y012600D03*
X056294Y013600D03*
X052194Y015400D03*
X048544Y015950D03*
X044994Y014600D03*
X049594Y012800D03*
X057094Y010600D03*
X065744Y014200D03*
X069544Y013550D03*
X070644Y012650D03*
X070794Y014800D03*
X074644Y018700D03*
X082944Y020750D03*
X080894Y021500D03*
X077894Y022650D03*
X074744Y022450D03*
X072494Y023500D03*
X071094Y023500D03*
X069494Y023500D03*
X068244Y022350D03*
X066594Y021350D03*
X063894Y021300D03*
X063294Y022100D03*
X060494Y021500D03*
X065344Y019850D03*
X056594Y023750D03*
X056044Y023800D03*
X056744Y025350D03*
X060344Y024900D03*
X074694Y026300D03*
X033769Y013900D03*
X059544Y005600D03*
X065494Y004350D03*
D23*
X063569Y017250D03*
D24*
X066819Y009375D03*
X068819Y009375D03*
X066694Y006875D03*
X071069Y006875D03*
X077944Y004625D03*
M02*
